<svg width="500" height="500" viewBox="0 0 500 500" fill="none" xmlns="http://www.w3.org/2000/svg">
<path d="M86.26 358.2C60.65 321.76 2.06997 215.13 120.15 183.27C238.23 151.41 200.43 60.4 286.69 61.74C372.95 63.08 457.61 135.33 447.21 203.89C436.81 272.45 342.16 267 315.7 337.83C289.24 408.66 131.32 422.3 86.26 358.2Z" fill="#7E57C2"/>
<path opacity="0.7" d="M86.26 358.55C60.65 322.11 2.06997 215.48 120.15 183.62C238.23 151.76 200.43 60.75 286.69 62.08C372.95 63.41 457.61 135.68 447.21 204.24C436.81 272.8 342.21 267.35 315.7 338.17C289.19 408.99 131.32 422.65 86.26 358.55Z" fill="white"/>
<path d="M380.52 194.16C384.737 193.168 388.565 190.948 391.52 187.78L398.57 190.17L402.08 184.08L396.5 179.17C397.754 175.016 397.754 170.584 396.5 166.43L402.08 161.52L398.57 155.42L391.52 157.81C388.567 154.642 384.738 152.424 380.52 151.44L379.06 144.14H375.54" stroke="#263238" stroke-miterlimit="10"/>
<path d="M372 144.14L370.54 151.44C366.323 152.426 362.494 154.643 359.54 157.81L352.54 155.42L349.03 161.52L354.61 166.43C353.356 170.584 353.356 175.016 354.61 179.17L349 184.08L352.51 190.17L359.51 187.78C362.466 190.946 366.294 193.166 370.51 194.16L371.97 201.45H378.97L380.43 194.16" stroke="#263238" stroke-miterlimit="10"/>
<path d="M375.09 184.53C362.55 183.65 360.2 165.39 372.73 162.18" stroke="#263238" stroke-miterlimit="10"/>
<path d="M383 164.7C389.24 170.41 387.27 181.57 379 184.09" stroke="#263238" stroke-miterlimit="10"/>
<path d="M377 161.93C378.091 162.059 379.156 162.353 380.16 162.8" stroke="#263238" stroke-miterlimit="10"/>
<path d="M417.88 199.71L419.36 197.94C422.117 198.696 425.035 198.623 427.75 197.73L431.07 201.32" stroke="#263238" stroke-miterlimit="10"/>
<path d="M412.41 172L413.06 173.75C411.028 175.758 409.637 178.322 409.06 181.12L404.29 182.21L404.4 186.84L409.23 187.68C409.591 189.054 410.15 190.368 410.89 191.58C411.631 192.792 412.547 193.887 413.61 194.83L412.16 199.51L416.23 201.72" stroke="#263238" stroke-miterlimit="10"/>
<path d="M431.07 201.32L435 198.9L433.32 194.3C435.349 192.29 436.74 189.726 437.32 186.93L442.09 185.85L441.97 181.22L437.15 180.38C436.429 177.616 434.905 175.128 432.77 173.23L434.22 168.55L430.15 166.34L427 170.1C424.248 169.334 421.33 169.408 418.62 170.31L415.29 166.72L411.34 169.14" stroke="#263238" stroke-miterlimit="10"/>
<path d="M430.48 182.32C431.85 188.06 426.39 193.59 420.62 191.26C415.12 189.03 414.32 180.96 419.43 177.86" stroke="#263238" stroke-miterlimit="10"/>
<path d="M425.76 177.16C426.91 177.568 427.941 178.255 428.76 179.16" stroke="#263238" stroke-miterlimit="10"/>
<path d="M108.82 296L116.34 303.51C116.021 304.852 116.051 306.254 116.427 307.581C116.802 308.908 117.512 310.117 118.487 311.093C119.463 312.068 120.672 312.778 121.999 313.153C123.326 313.529 124.728 313.559 126.07 313.24L121.35 308.53L122.63 303.75L127.4 302.47L132.12 307.19C132.439 305.848 132.409 304.446 132.033 303.119C131.658 301.792 130.948 300.583 129.973 299.607C128.997 298.632 127.788 297.922 126.461 297.547C125.134 297.171 123.732 297.141 122.39 297.46L115.47 290.54" stroke="#263238" stroke-miterlimit="10"/>
<path d="M104.48 279.58L97.59 272.69C97.8958 271.35 97.8557 269.955 97.4737 268.635C97.0916 267.315 96.38 266.114 95.4059 265.145C94.4318 264.176 93.2272 263.471 91.9054 263.096C90.5836 262.72 89.188 262.687 87.85 263L92.57 267.72L91.29 272.49L86.52 273.77L81.8 269C81.484 270.343 81.5162 271.745 81.8937 273.072C82.2713 274.399 82.9815 275.607 83.9571 276.583C84.9327 277.559 86.1413 278.269 87.4684 278.646C88.7955 279.024 90.197 279.056 91.54 278.74L98.43 285.63" stroke="#263238" stroke-miterlimit="10"/>
<path d="M112.22 286.83L121.83 277.22C122.305 276.748 122.847 276.35 123.44 276.04L125.37 275.04L132.37 267.04L128 262.74L120 269.74L119 271.67C118.695 272.266 118.297 272.81 117.82 273.28L110.2 280.91" stroke="#263238" stroke-miterlimit="10"/>
<path d="M86.64 312C87.2924 312.415 88.0709 312.584 88.8365 312.478C89.6021 312.371 90.3051 311.997 90.82 311.42L107.47 294.77C107.868 294.412 108.168 293.96 108.343 293.454C108.518 292.949 108.562 292.407 108.47 291.88L111.36 288.99L111.54 289.16C111.639 289.26 111.756 289.34 111.886 289.394C112.015 289.448 112.154 289.476 112.295 289.476C112.436 289.476 112.575 289.448 112.704 289.394C112.834 289.34 112.951 289.26 113.05 289.16C113.247 288.958 113.358 288.687 113.358 288.405C113.358 288.123 113.247 287.852 113.05 287.65L107.35 281.95C107.148 281.75 106.876 281.638 106.591 281.639C106.307 281.64 106.035 281.753 105.835 281.955C105.635 282.157 105.523 282.429 105.524 282.714C105.525 282.998 105.638 283.27 105.84 283.47L106.02 283.64L103.13 286.53C102.603 286.438 102.061 286.481 101.556 286.656C101.05 286.831 100.597 287.132 100.24 287.53L83.61 304.25C83.2272 304.591 82.9313 305.018 82.7469 305.497C82.5625 305.975 82.495 306.49 82.55 307" stroke="#263238" stroke-miterlimit="10"/>
<path d="M83.22 308.76C83.6105 309.383 84.0737 309.957 84.6 310.47C85.1864 311.088 85.8602 311.617 86.6 312.04" stroke="#263238" stroke-miterlimit="10"/>
<path d="M88.34 306.99L91.25 304.08" stroke="#263238" stroke-miterlimit="10"/>
<path d="M95.18 300.15L107.48 287.59" stroke="#263238" stroke-miterlimit="10"/>
<path d="M363.56 87.76H96.96V260.96H363.56V87.76Z" fill="white"/>
<path d="M363.56 87.76H96.96V260.96H125.15H169.84H363.56V87.76Z" fill="#BFBFBF"/>
<path d="M363.56 87.76H96.96V110.42H363.56V87.76Z" fill="white"/>
<path d="M363.56 87.76H96.96V110.42H363.56V87.76Z" fill="#757575"/>
<path d="M355.39 91.37H345.19C343.743 91.37 342.57 92.543 342.57 93.99V104.19C342.57 105.637 343.743 106.81 345.19 106.81H355.39C356.837 106.81 358.01 105.637 358.01 104.19V93.99C358.01 92.543 356.837 91.37 355.39 91.37Z" fill="white"/>
<path d="M336.45 91.37H326.29C324.832 91.37 323.65 92.552 323.65 94.01V104.17C323.65 105.628 324.832 106.81 326.29 106.81H336.45C337.908 106.81 339.09 105.628 339.09 104.17V94.01C339.09 92.552 337.908 91.37 336.45 91.37Z" fill="white"/>
<path d="M317.55 91.37H307.35C305.903 91.37 304.73 92.543 304.73 93.99V104.19C304.73 105.637 305.903 106.81 307.35 106.81H317.55C318.997 106.81 320.17 105.637 320.17 104.19V93.99C320.17 92.543 318.997 91.37 317.55 91.37Z" fill="white"/>
<path d="M348.34 120.42H112.18C109.297 120.42 106.96 122.757 106.96 125.64V245.74C106.96 248.623 109.297 250.96 112.18 250.96H348.34C351.223 250.96 353.56 248.623 353.56 245.74V125.64C353.56 122.757 351.223 120.42 348.34 120.42Z" fill="#263238" stroke="#263238" stroke-linecap="round" stroke-linejoin="round"/>
<path d="M346.98 102.4L353.6 95.78" stroke="#263238" stroke-linecap="round" stroke-linejoin="round"/>
<path d="M346.98 95.78L353.6 102.4" stroke="#263238" stroke-linecap="round" stroke-linejoin="round"/>
<path d="M335.78 97.67H326.95V103.5H335.78V97.67Z" stroke="#263238" stroke-linecap="round" stroke-linejoin="round"/>
<path d="M316.86 103.5H308.03" stroke="#263238" stroke-linecap="round" stroke-linejoin="round"/>
<path d="M338.06 209.16H320.53C320 209.16 319.491 208.949 319.116 208.574C318.741 208.199 318.53 207.69 318.53 207.16C318.53 206.63 318.741 206.121 319.116 205.746C319.491 205.371 320 205.16 320.53 205.16H338.06C338.59 205.16 339.099 205.371 339.474 205.746C339.849 206.121 340.06 206.63 340.06 207.16C340.06 207.69 339.849 208.199 339.474 208.574C339.099 208.949 338.59 209.16 338.06 209.16Z" fill="#757575"/>
<path d="M338.06 223H289.13C288.6 223 288.091 222.789 287.716 222.414C287.341 222.039 287.13 221.53 287.13 221C287.13 220.47 287.341 219.961 287.716 219.586C288.091 219.211 288.6 219 289.13 219H338.06C338.59 219 339.099 219.211 339.474 219.586C339.849 219.961 340.06 220.47 340.06 221C340.06 221.53 339.849 222.039 339.474 222.414C339.099 222.789 338.59 223 338.06 223Z" fill="#757575"/>
<path d="M338.06 236.83H230.26C229.73 236.83 229.221 236.619 228.846 236.244C228.471 235.869 228.26 235.36 228.26 234.83C228.26 234.3 228.471 233.791 228.846 233.416C229.221 233.041 229.73 232.83 230.26 232.83H338.06C338.59 232.83 339.099 233.041 339.474 233.416C339.849 233.791 340.06 234.3 340.06 234.83C340.06 235.36 339.849 235.869 339.474 236.244C339.099 236.619 338.59 236.83 338.06 236.83Z" fill="#757575"/>
<path d="M125.46 195.33H117.29C116.76 195.33 116.251 195.119 115.876 194.744C115.501 194.369 115.29 193.86 115.29 193.33C115.29 192.8 115.501 192.291 115.876 191.916C116.251 191.541 116.76 191.33 117.29 191.33H125.46C125.99 191.33 126.499 191.541 126.874 191.916C127.249 192.291 127.46 192.8 127.46 193.33C127.46 193.86 127.249 194.369 126.874 194.744C126.499 195.119 125.99 195.33 125.46 195.33Z" fill="#BFBFBF"/>
<path d="M125.46 209.16H117.29C116.76 209.16 116.251 208.949 115.876 208.574C115.501 208.199 115.29 207.69 115.29 207.16C115.29 206.63 115.501 206.121 115.876 205.746C116.251 205.371 116.76 205.16 117.29 205.16H125.46C125.99 205.16 126.499 205.371 126.874 205.746C127.249 206.121 127.46 206.63 127.46 207.16C127.46 207.69 127.249 208.199 126.874 208.574C126.499 208.949 125.99 209.16 125.46 209.16Z" fill="#BFBFBF"/>
<path d="M125.46 223H117.29C116.76 223 116.251 222.789 115.876 222.414C115.501 222.039 115.29 221.53 115.29 221C115.29 220.47 115.501 219.961 115.876 219.586C116.251 219.211 116.76 219 117.29 219H125.46C125.99 219 126.499 219.211 126.874 219.586C127.249 219.961 127.46 220.47 127.46 221C127.46 221.53 127.249 222.039 126.874 222.414C126.499 222.789 125.99 223 125.46 223Z" fill="#BFBFBF"/>
<path d="M125.46 236.83H117.29C116.76 236.83 116.251 236.619 115.876 236.244C115.501 235.869 115.29 235.36 115.29 234.83C115.29 234.3 115.501 233.791 115.876 233.416C116.251 233.041 116.76 232.83 117.29 232.83H125.46C125.99 232.83 126.499 233.041 126.874 233.416C127.249 233.791 127.46 234.3 127.46 234.83C127.46 235.36 127.249 235.869 126.874 236.244C126.499 236.619 125.99 236.83 125.46 236.83Z" fill="#BFBFBF"/>
<g opacity="0.7">
<path d="M125.46 195.33H117.29C116.76 195.33 116.251 195.119 115.876 194.744C115.501 194.369 115.29 193.86 115.29 193.33C115.29 192.8 115.501 192.291 115.876 191.916C116.251 191.541 116.76 191.33 117.29 191.33H125.46C125.99 191.33 126.499 191.541 126.874 191.916C127.249 192.291 127.46 192.8 127.46 193.33C127.46 193.86 127.249 194.369 126.874 194.744C126.499 195.119 125.99 195.33 125.46 195.33Z" fill="#BFBFBF"/>
</g>
<g opacity="0.7">
<path d="M125.46 209.16H117.29C116.76 209.16 116.251 208.949 115.876 208.574C115.501 208.199 115.29 207.69 115.29 207.16C115.29 206.63 115.501 206.121 115.876 205.746C116.251 205.371 116.76 205.16 117.29 205.16H125.46C125.99 205.16 126.499 205.371 126.874 205.746C127.249 206.121 127.46 206.63 127.46 207.16C127.46 207.69 127.249 208.199 126.874 208.574C126.499 208.949 125.99 209.16 125.46 209.16Z" fill="#BFBFBF"/>
</g>
<g opacity="0.7">
<path d="M125.46 223H117.29C116.76 223 116.251 222.789 115.876 222.414C115.501 222.039 115.29 221.53 115.29 221C115.29 220.47 115.501 219.961 115.876 219.586C116.251 219.211 116.76 219 117.29 219H125.46C125.99 219 126.499 219.211 126.874 219.586C127.249 219.961 127.46 220.47 127.46 221C127.46 221.53 127.249 222.039 126.874 222.414C126.499 222.789 125.99 223 125.46 223Z" fill="#BFBFBF"/>
</g>
<g opacity="0.7">
<path d="M125.46 236.83H117.29C116.76 236.83 116.251 236.619 115.876 236.244C115.501 235.869 115.29 235.36 115.29 234.83C115.29 234.3 115.501 233.791 115.876 233.416C116.251 233.041 116.76 232.83 117.29 232.83H125.46C125.99 232.83 126.499 233.041 126.874 233.416C127.249 233.791 127.46 234.3 127.46 234.83C127.46 235.36 127.249 235.869 126.874 236.244C126.499 236.619 125.99 236.83 125.46 236.83Z" fill="#BFBFBF"/>
</g>
<path d="M289.13 181.49H117.29C116.76 181.49 116.251 181.279 115.876 180.904C115.501 180.529 115.29 180.02 115.29 179.49C115.29 178.96 115.501 178.451 115.876 178.076C116.251 177.701 116.76 177.49 117.29 177.49H289.13C289.66 177.49 290.169 177.701 290.544 178.076C290.919 178.451 291.13 178.96 291.13 179.49C291.13 180.02 290.919 180.529 290.544 180.904C290.169 181.279 289.66 181.49 289.13 181.49Z" fill="#BFBFBF"/>
<path d="M338.06 153.83H320.53C320 153.83 319.491 153.619 319.116 153.244C318.741 152.869 318.53 152.36 318.53 151.83C318.53 151.3 318.741 150.791 319.116 150.416C319.491 150.041 320 149.83 320.53 149.83H338.06C338.59 149.83 339.099 150.041 339.474 150.416C339.849 150.791 340.06 151.3 340.06 151.83C340.06 152.36 339.849 152.869 339.474 153.244C339.099 153.619 338.59 153.83 338.06 153.83Z" fill="#BFBFBF"/>
<path d="M313.2 153.83H296.46C295.93 153.83 295.421 153.619 295.046 153.244C294.671 152.869 294.46 152.36 294.46 151.83C294.46 151.3 294.671 150.791 295.046 150.416C295.421 150.041 295.93 149.83 296.46 149.83H313.2C313.73 149.83 314.239 150.041 314.614 150.416C314.989 150.791 315.2 151.3 315.2 151.83C315.2 152.36 314.989 152.869 314.614 153.244C314.239 153.619 313.73 153.83 313.2 153.83Z" fill="#BFBFBF"/>
<path d="M289.13 153.83H117.29C116.76 153.83 116.251 153.619 115.876 153.244C115.501 152.869 115.29 152.36 115.29 151.83C115.29 151.3 115.501 150.791 115.876 150.416C116.251 150.041 116.76 149.83 117.29 149.83H289.13C289.66 149.83 290.169 150.041 290.544 150.416C290.919 150.791 291.13 151.3 291.13 151.83C291.13 152.36 290.919 152.869 290.544 153.244C290.169 153.619 289.66 153.83 289.13 153.83Z" fill="#BFBFBF"/>
<path d="M338.06 195.33H320.53C320 195.33 319.491 195.119 319.116 194.744C318.741 194.369 318.53 193.86 318.53 193.33C318.53 192.8 318.741 192.291 319.116 191.916C319.491 191.541 320 191.33 320.53 191.33H338.06C338.59 191.33 339.099 191.541 339.474 191.916C339.849 192.291 340.06 192.8 340.06 193.33C340.06 193.86 339.849 194.369 339.474 194.744C339.099 195.119 338.59 195.33 338.06 195.33Z" fill="#999999"/>
<path d="M313.2 195.33H134.46C133.93 195.33 133.421 195.119 133.046 194.744C132.671 194.369 132.46 193.86 132.46 193.33C132.46 192.8 132.671 192.291 133.046 191.916C133.421 191.541 133.93 191.33 134.46 191.33H313.2C313.73 191.33 314.239 191.541 314.614 191.916C314.989 192.291 315.2 192.8 315.2 193.33C315.2 193.86 314.989 194.369 314.614 194.744C314.239 195.119 313.73 195.33 313.2 195.33Z" fill="#999999"/>
<path d="M185.79 209.16H134.46C133.93 209.16 133.421 208.949 133.046 208.574C132.671 208.199 132.46 207.69 132.46 207.16C132.46 206.63 132.671 206.121 133.046 205.746C133.421 205.371 133.93 205.16 134.46 205.16H185.79C186.32 205.16 186.829 205.371 187.204 205.746C187.579 206.121 187.79 206.63 187.79 207.16C187.79 207.69 187.579 208.199 187.204 208.574C186.829 208.949 186.32 209.16 185.79 209.16Z" fill="#999999"/>
<path d="M185.79 223H134.46C133.93 223 133.421 222.789 133.046 222.414C132.671 222.039 132.46 221.53 132.46 221C132.46 220.47 132.671 219.961 133.046 219.586C133.421 219.211 133.93 219 134.46 219H185.79C186.32 219 186.829 219.211 187.204 219.586C187.579 219.961 187.79 220.47 187.79 221C187.79 221.53 187.579 222.039 187.204 222.414C186.829 222.789 186.32 223 185.79 223Z" fill="#999999"/>
<path d="M185.79 236.83H134.46C133.93 236.83 133.421 236.619 133.046 236.244C132.671 235.869 132.46 235.36 132.46 234.83C132.46 234.3 132.671 233.791 133.046 233.416C133.421 233.041 133.93 232.83 134.46 232.83H185.79C186.32 232.83 186.829 233.041 187.204 233.416C187.579 233.791 187.79 234.3 187.79 234.83C187.79 235.36 187.579 235.869 187.204 236.244C186.829 236.619 186.32 236.83 185.79 236.83Z" fill="#999999"/>
<path d="M152.08 414.24C152.08 414.24 146.84 423.24 148.9 423.59C150.96 423.94 155.29 416.11 155.29 416.11L167.14 413L158.21 412.08L152.08 414.24Z" fill="white" stroke="#263238" stroke-linecap="round" stroke-linejoin="round"/>
<path opacity="0.3" d="M152.08 414.24C152.08 414.24 146.84 423.24 148.9 423.59C150.96 423.94 155.29 416.11 155.29 416.11L167.14 413L158.21 412.08L152.08 414.24Z" fill="black" stroke="#263238" stroke-linecap="round" stroke-linejoin="round"/>
<path d="M156.07 408.08C156.07 408.08 148.73 406.34 146.71 409.78C144.69 413.22 138.71 423.43 140.97 424.59C143.23 425.75 145.14 421.99 145.14 421.99L156.07 408.08Z" fill="white" stroke="#263238" stroke-linecap="round" stroke-linejoin="round"/>
<path d="M186.09 418.54C181.276 420.204 176.145 420.744 171.09 420.12L162.74 422.9C162.74 422.9 155.4 426.51 151.98 424.69C148.56 422.87 160.68 418.85 160.68 418.85C160.68 418.85 168.83 415.32 166.4 414.47C163.97 413.62 154.77 413.79 152.97 415.17C151.17 416.55 146.42 425.54 142.97 425.02C139.52 424.5 144.41 419.62 145.64 417.74C146.87 415.86 149.64 408.36 155.2 408.04C160.76 407.72 179.57 408.69 179.57 408.69L201.66 406.33L206.87 418.9L186.09 418.54Z" fill="white" stroke="#263238" stroke-linecap="round" stroke-linejoin="round"/>
<path d="M197.62 421.65C198.236 422.092 198.977 422.325 199.735 422.314C200.493 422.303 201.227 422.049 201.83 421.59C202.496 421.874 203.23 421.955 203.942 421.823C204.653 421.691 205.31 421.353 205.83 420.85C207.44 419.08 207.58 403.55 203.12 401.8C201.83 401.3 198.61 401.35 198.12 403.15C197.776 403.011 197.405 402.954 197.035 402.985C196.666 403.016 196.309 403.134 195.993 403.329C195.677 403.523 195.412 403.79 195.219 404.106C195.025 404.423 194.909 404.78 194.88 405.15C194.44 407.95 197.22 410.56 196.29 418.61C196.209 419.19 196.291 419.781 196.525 420.318C196.76 420.855 197.139 421.316 197.62 421.65Z" fill="#7E57C2" stroke="#263238" stroke-linecap="round" stroke-linejoin="round"/>
<path opacity="0.3" d="M197.62 421.65C198.236 422.092 198.977 422.325 199.735 422.314C200.493 422.303 201.227 422.049 201.83 421.59C202.496 421.874 203.23 421.955 203.942 421.823C204.653 421.691 205.31 421.353 205.83 420.85C207.44 419.08 207.58 403.55 203.12 401.8C201.83 401.3 198.61 401.35 198.12 403.15C197.776 403.011 197.405 402.954 197.035 402.985C196.666 403.016 196.309 403.134 195.993 403.329C195.677 403.523 195.412 403.79 195.219 404.106C195.025 404.423 194.909 404.78 194.88 405.15C194.44 407.95 197.22 410.56 196.29 418.61C196.209 419.19 196.291 419.781 196.525 420.318C196.76 420.855 197.139 421.316 197.62 421.65Z" fill="black" stroke="#263238" stroke-linecap="round" stroke-linejoin="round"/>
<path d="M202.72 418C202.715 413.77 201.815 409.588 200.08 405.73" stroke="#263238" stroke-linecap="round" stroke-linejoin="round"/>
<path d="M307.85 412.39C307.11 418.08 306.27 424.24 305.31 430.93H219.47L219.88 419.87C214.75 421.11 204.78 420.35 204.78 420.35V404C210.84 400.57 211.78 401.53 211.78 401.53C211.78 401.53 212.09 361.63 215.72 351.67C217.105 347.92 219.577 344.668 222.82 342.33C223.684 341.687 224.589 341.103 225.53 340.58L225.66 340.5C226.66 339.97 227.87 339.41 229.25 338.83L229.63 338.68C243.07 333.19 272.4 326.82 299.73 338.5C301.64 339.32 317.24 346.77 318.57 357.5C319.29 363.67 315.11 394.21 307.85 412.39Z" fill="#7E57C2"/>
<path opacity="0.2" d="M294.25 363.2L285.69 402.93C284.36 401.88 280.53 401.81 275.69 402.27C276.742 401.113 277.615 399.805 278.28 398.39C291.19 370.39 294 363.76 294.25 363.2Z" fill="black"/>
<path opacity="0.2" d="M309.89 406.85C307.806 414.76 306.275 422.807 305.31 430.93H219.47L220.26 418.19C225.61 417.43 235 416.65 244.75 414.92C245.498 417.97 245.576 421.146 244.98 424.23C244.98 424.23 284.46 429.13 297.71 425.94C301.49 425.03 304.91 419.75 307.84 412.48C308.55 410.71 309.23 408.82 309.89 406.85Z" fill="black"/>
<path opacity="0.3" d="M212.77 402.28C212.77 402.28 210.84 400.57 204.77 404V420.35C204.77 420.35 214.77 420 218.69 417.87C222.07 419.96 221.47 381.69 222.07 361.08C217.17 362.43 216.78 371.75 216.02 380.52C215.392 387.834 214.307 395.102 212.77 402.28Z" fill="black"/>
<path d="M307.85 412.39C307.11 418.08 306.27 424.24 305.31 430.93H219.47L219.88 419.87C214.75 421.11 204.78 420.35 204.78 420.35V404C210.84 400.57 211.78 401.53 211.78 401.53C211.78 401.53 212.09 361.63 215.72 351.67C217.105 347.92 219.577 344.668 222.82 342.33V342.33C223.684 341.687 224.589 341.103 225.53 340.58L225.66 340.5C226.66 339.97 227.87 339.41 229.25 338.83L229.63 338.68C243.07 333.19 272.4 326.82 299.73 338.5C301.64 339.32 317.24 346.77 318.57 357.5C319.29 363.67 315.11 394.21 307.85 412.39Z" stroke="#263238" stroke-linecap="round" stroke-linejoin="round"/>
<path d="M318.53 357.53C318.53 357.77 318.59 358.05 318.6 358.36C319.04 366.04 314.86 395.02 307.84 412.48C304.91 419.75 301.49 425.03 297.71 425.94C284.46 429.13 244.98 424.23 244.98 424.23C246.011 418.812 244.957 413.204 242.03 408.53C242.03 408.53 280.79 399.05 285.69 402.93L294.27 363.16" stroke="#263238" stroke-linecap="round" stroke-linejoin="round"/>
<path d="M288.39 405.1C291.153 406.428 293.521 408.455 295.26 410.98" stroke="#263238" stroke-linecap="round" stroke-linejoin="round"/>
<path d="M189.65 406.52C189.65 406.52 186.03 405.76 184.56 407.41C183.09 409.06 176.79 418.52 178.92 420.32C181.05 422.12 185.38 412.23 185.38 412.23L189.65 406.52Z" fill="white" stroke="#263238" stroke-linecap="round" stroke-linejoin="round"/>
<path d="M196.91 406.35C196.91 406.35 188.91 404.63 187.08 407.08C185.25 409.53 175.16 422.21 181.46 422.61L191.46 411.33L196.91 406.35Z" fill="white" stroke="#263238" stroke-linecap="round" stroke-linejoin="round"/>
<path d="M215.05 419.83C215.05 419.83 206.8 421.63 203.45 422.29C200.1 422.95 193.88 427.29 190.2 425.56C186.52 423.83 202.2 417.46 202.2 417.46L207.6 415.29L215.05 419.83Z" fill="#BFBFBF" stroke="#263238" stroke-linecap="round" stroke-linejoin="round"/>
<path d="M221.73 370.47C221.85 367.34 221.96 364.21 222.08 361.08" stroke="#263238" stroke-linecap="round" stroke-linejoin="round"/>
<path d="M219.47 430.93C221 412 221.57 374.73 221.57 374.73" stroke="#263238" stroke-linecap="round" stroke-linejoin="round"/>
<path d="M245 409.62H216.53C216.53 409.62 194.45 402.99 190.78 408.14C187.11 413.29 179.25 421.14 181.46 422.61C183.67 424.08 193 413.42 193 413.42L201.1 413.49C201.1 413.49 194.23 416.49 192.76 417.95C191.29 419.41 188.1 423.59 189.76 424.33C191.42 425.07 196.88 419.67 196.88 419.67C196.88 419.67 204.97 417.67 206.93 418.67C213.219 421.889 220.495 422.603 227.29 420.67L249 423.37L245 409.62Z" fill="white" stroke="#263238" stroke-linecap="round" stroke-linejoin="round"/>
<path d="M291.3 376.93C290.515 372.376 290.485 367.724 291.21 363.16" stroke="#263238" stroke-linecap="round" stroke-linejoin="round"/>
<path d="M297.75 353.08C297.75 353.08 311.55 334.9 318.53 357.53" stroke="#263238" stroke-linecap="round" stroke-linejoin="round"/>
<path d="M239.14 407.37C239.628 406.789 240.289 406.379 241.026 406.199C241.764 406.019 242.539 406.079 243.24 406.37C243.814 405.928 244.505 405.666 245.228 405.616C245.95 405.566 246.671 405.731 247.3 406.09C249.3 407.41 253.3 422.41 249.41 425.22C248.29 426.02 245.16 426.77 244.2 425.16C243.9 425.381 243.551 425.528 243.184 425.589C242.816 425.65 242.439 425.624 242.083 425.512C241.727 425.4 241.403 425.205 241.137 424.944C240.87 424.683 240.669 424.363 240.55 424.01C239.43 421.4 241.48 418.19 238.55 410.62C238.342 410.076 238.288 409.486 238.392 408.913C238.496 408.34 238.754 407.806 239.14 407.37Z" fill="#7E57C2"/>
<path opacity="0.3" d="M239.14 407.37C239.628 406.789 240.289 406.379 241.026 406.199C241.764 406.019 242.539 406.079 243.24 406.37C243.814 405.928 244.505 405.666 245.228 405.616C245.95 405.566 246.671 405.731 247.3 406.09C249.3 407.41 253.3 422.41 249.41 425.22C248.29 426.02 245.16 426.77 244.2 425.16C243.9 425.381 243.551 425.528 243.184 425.589C242.816 425.65 242.439 425.624 242.083 425.512C241.727 425.4 241.403 425.205 241.137 424.944C240.87 424.683 240.669 424.363 240.55 424.01C239.43 421.4 241.48 418.19 238.55 410.62C238.342 410.076 238.288 409.486 238.392 408.913C238.496 408.34 238.754 407.806 239.14 407.37Z" fill="black"/>
<path d="M239.14 407.37C239.628 406.789 240.289 406.379 241.026 406.199C241.764 406.019 242.539 406.079 243.24 406.37C243.814 405.928 244.505 405.666 245.228 405.616C245.95 405.566 246.671 405.731 247.3 406.09C249.3 407.41 253.3 422.41 249.41 425.22C248.29 426.02 245.16 426.77 244.2 425.16C243.9 425.381 243.551 425.528 243.184 425.589C242.816 425.65 242.439 425.624 242.083 425.512C241.727 425.4 241.403 425.205 241.137 424.944C240.87 424.683 240.669 424.363 240.55 424.01C239.43 421.4 241.48 418.19 238.55 410.62C238.342 410.076 238.288 409.486 238.392 408.913C238.496 408.34 238.754 407.806 239.14 407.37V407.37Z" stroke="#263238" stroke-linecap="round" stroke-linejoin="round"/>
<path d="M245.46 415.16C245.813 417.478 245.84 419.834 245.54 422.16" stroke="#263238" stroke-linecap="round" stroke-linejoin="round"/>
<path d="M258 370.25C257.98 370.635 257.845 371.006 257.614 371.315C257.383 371.624 257.066 371.857 256.702 371.986C256.338 372.114 255.944 372.132 255.57 372.036C255.196 371.941 254.859 371.737 254.601 371.45C254.344 371.162 254.177 370.805 254.122 370.423C254.068 370.041 254.128 369.652 254.294 369.304C254.461 368.956 254.728 368.665 255.06 368.469C255.392 368.272 255.775 368.179 256.16 368.2C256.671 368.241 257.147 368.476 257.489 368.858C257.832 369.239 258.014 369.738 258 370.25Z" fill="white" stroke="#263238" stroke-linecap="round" stroke-linejoin="round"/>
<path d="M256.56 400.45C256.536 400.832 256.399 401.199 256.167 401.503C255.934 401.808 255.617 402.037 255.255 402.162C254.893 402.286 254.502 402.301 254.132 402.204C253.761 402.106 253.428 401.902 253.173 401.616C252.919 401.329 252.755 400.974 252.702 400.595C252.65 400.215 252.71 399.829 252.877 399.484C253.043 399.139 253.308 398.851 253.638 398.656C253.967 398.462 254.348 398.369 254.73 398.39C255.246 398.421 255.728 398.655 256.071 399.041C256.414 399.428 256.59 399.934 256.56 400.45Z" fill="white" stroke="#263238" stroke-linecap="round" stroke-linejoin="round"/>
<path d="M274.42 333.27L273 313.12L252.14 318L251 334.13C249.69 334.29 248.44 334.48 247.21 334.66L252.31 346.89L262.31 348.2L278.25 333.51C277 333.41 275.68 333.33 274.42 333.27Z" fill="white"/>
<path d="M251.83 325.08C251.97 339.42 268.72 335.02 273.36 320.7L272.99 313.12L252.14 318L251.83 325.08Z" fill="#263238"/>
<path d="M274.42 333.27L273 313.12L252.14 318L251 334.13C249.69 334.29 248.44 334.48 247.21 334.66L252.31 346.89L262.31 348.2L278.25 333.51C277 333.41 275.68 333.33 274.42 333.27Z" stroke="#263238" stroke-linecap="round" stroke-linejoin="round"/>
<path d="M239.06 296.11C239.06 296.11 231.44 282.93 230.32 275.98C226.83 254.51 242.32 261.75 242.32 261.75C242.32 261.75 253.32 251.94 266.93 253.66C280.54 255.38 284.18 261.19 293.37 264.76C293.37 264.76 286.47 299.76 277.64 307.62C268.81 315.48 239.06 296.11 239.06 296.11Z" fill="#263238" stroke="#263238" stroke-linecap="round" stroke-linejoin="round"/>
<path d="M243.07 264.94C243.07 264.94 239.64 256.6 248.34 250.23" stroke="#263238" stroke-linecap="round" stroke-linejoin="round"/>
<path d="M258.05 259.93C268.24 255.43 272.79 262.93 284.16 264.93" stroke="#BFBFBF" stroke-miterlimit="10"/>
<path d="M250.18 264.94C251.106 263.774 252.226 262.777 253.49 261.99" stroke="#BFBFBF" stroke-miterlimit="10"/>
<path d="M260.64 268.21C260.64 268.21 265.05 263.98 273.8 269.48C276.441 271.219 279.413 272.39 282.53 272.92" stroke="#BFBFBF" stroke-miterlimit="10"/>
<path d="M274.12 277.37C261.44 277.7 248.34 271.97 248.34 271.97C236.52 279.1 238.28 290.69 238.28 290.69C240.98 318.39 244.63 325.77 257.57 325.77C270.51 325.77 281.03 311.77 281.88 291.82C277 292.05 274.12 277.37 274.12 277.37Z" fill="white" stroke="#263238" stroke-linecap="round" stroke-linejoin="round"/>
<path d="M280.79 290.69C281.08 290.261 281.466 289.904 281.917 289.649C282.368 289.394 282.872 289.247 283.39 289.22C285.69 289.22 287.39 292.22 286.58 295.97C285.77 299.72 284.71 302.71 282.41 302.71C281.884 302.691 281.377 302.512 280.956 302.198C280.534 301.884 280.218 301.448 280.05 300.95" fill="white"/>
<path d="M280.79 290.69C281.08 290.261 281.466 289.904 281.917 289.649C282.368 289.394 282.872 289.247 283.39 289.22C285.69 289.22 287.39 292.22 286.58 295.97C285.77 299.72 284.71 302.71 282.41 302.71C281.884 302.691 281.377 302.512 280.956 302.198C280.534 301.884 280.218 301.448 280.05 300.95" stroke="#263238" stroke-linecap="round" stroke-linejoin="round"/>
<path d="M255.58 304.29C255.58 304.29 257.13 306.41 254.16 308C251.19 309.59 248.83 309.56 248.07 307.74C247.31 305.92 250.61 290.74 250.61 290.74" stroke="#263238" stroke-linecap="round" stroke-linejoin="round"/>
<path d="M250.11 293.17C248.51 292.36 242.11 289.56 236.03 293.38L236.42 299.26C236.42 299.26 238.66 300.49 243.8 300.49C245.482 300.521 247.161 300.346 248.8 299.97" stroke="#263238" stroke-linecap="round" stroke-linejoin="round"/>
<path d="M255.42 293.38L257.28 299.51C257.28 299.51 258.04 300.51 263.19 300.51C268.34 300.51 270.03 299.28 270.03 299.28L269.88 293.4C269.88 293.4 262.41 289 255.42 293.38Z" stroke="#263238" stroke-linecap="round" stroke-linejoin="round"/>
<path d="M250.52 293.38H255.42" stroke="#263238" stroke-linecap="round" stroke-linejoin="round"/>
<path d="M251.56 313.56C254.237 314.323 257.085 314.235 259.71 313.31C261.73 312.547 263.49 311.222 264.78 309.49" stroke="#263238" stroke-linecap="round" stroke-linejoin="round"/>
<path d="M259.71 287.58C266.14 284.93 268.98 288.11 268.98 288.11" stroke="#263238" stroke-linecap="round" stroke-linejoin="round"/>
<path d="M242.74 287.32C243.845 286.791 245.077 286.585 246.294 286.724C247.511 286.864 248.664 287.344 249.62 288.11" stroke="#263238" stroke-linecap="round" stroke-linejoin="round"/>
<path d="M262.27 292.05C262.87 292.05 263.27 293.05 263.27 294.22C263.27 295.39 262.77 296.38 262.19 296.38C261.61 296.38 261.19 295.38 261.19 294.22C261.19 293.06 261.68 292.05 262.27 292.05Z" fill="#263238"/>
<path d="M246.3 291.78C246.89 291.78 247.3 292.78 247.3 293.95C247.3 295.12 246.8 296.11 246.22 296.11C245.64 296.11 245.22 295.11 245.22 293.95C245.22 292.79 245.72 291.78 246.3 291.78Z" fill="#263238"/>
<path d="M235.64 280.74C235.846 281.92 236.182 283.073 236.64 284.18" stroke="#BFBFBF" stroke-miterlimit="10"/>
<path d="M243.31 267.53C236.99 265.83 234.49 269.63 234.96 275.63" stroke="#BFBFBF" stroke-miterlimit="10"/>
<path d="M250 333.19L257.7 347.05L276.19 332.46L281.88 333.26L269.88 354.41C269.771 354.6 269.624 354.767 269.449 354.899C269.274 355.032 269.074 355.127 268.861 355.18C268.648 355.234 268.427 355.243 268.21 355.209C267.993 355.174 267.786 355.097 267.6 354.98L257.37 348.52L249.37 353.4C249.136 353.543 248.87 353.625 248.596 353.637C248.322 353.65 248.049 353.594 247.803 353.473C247.557 353.352 247.345 353.172 247.187 352.947C247.029 352.723 246.93 352.463 246.9 352.19L244.9 334.13L250 333.19Z" fill="#7E57C2"/>
<path opacity="0.3" d="M249.32 333.1L257.7 347.05L276.52 332.2L282.18 333.1L269.91 354.41C269.801 354.6 269.654 354.767 269.479 354.899C269.304 355.032 269.104 355.127 268.891 355.18C268.678 355.234 268.457 355.243 268.24 355.209C268.023 355.174 267.816 355.097 267.63 354.98L257.4 348.52L249.4 353.4C249.166 353.543 248.9 353.625 248.626 353.637C248.352 353.65 248.079 353.594 247.833 353.473C247.587 353.352 247.375 353.172 247.217 352.947C247.059 352.723 246.96 352.463 246.93 352.19L244.93 334.13L249.32 333.1Z" fill="black"/>
<path d="M250 333.19L257.7 347.05L276.19 332.46L281.88 333.26L269.88 354.41C269.771 354.6 269.624 354.767 269.449 354.899C269.274 355.032 269.074 355.127 268.861 355.18C268.648 355.234 268.427 355.243 268.21 355.209C267.993 355.174 267.786 355.097 267.6 354.98L257.37 348.52L249.37 353.4C249.136 353.543 248.87 353.625 248.596 353.637C248.322 353.65 248.049 353.594 247.803 353.473C247.557 353.352 247.345 353.172 247.187 352.947C247.029 352.723 246.93 352.463 246.9 352.19L244.9 334.13L250 333.19Z" stroke="#263238" stroke-linecap="round" stroke-linejoin="round"/>
<path d="M135.35 424.23H185.63V430.93H135.35C134.82 430.93 134.311 430.719 133.936 430.344C133.561 429.969 133.35 429.46 133.35 428.93V426.2C133.358 425.675 133.572 425.174 133.946 424.805C134.32 424.437 134.825 424.23 135.35 424.23Z" fill="#263238" stroke="#263238" stroke-linecap="round" stroke-linejoin="round"/>
<path d="M228.89 430.93H185.63V424.23L229 427.08C229.347 427.105 229.671 427.26 229.908 427.514C230.146 427.768 230.278 428.102 230.28 428.45V429.56C230.28 429.742 230.244 429.921 230.174 430.089C230.104 430.256 230.001 430.408 229.872 430.536C229.742 430.663 229.589 430.764 229.42 430.832C229.252 430.899 229.072 430.933 228.89 430.93Z" fill="#7E57C2" stroke="#263238" stroke-linecap="round" stroke-linejoin="round"/>
<path d="M269.91 294.37L280.79 290.69L279.5 292.32" stroke="#263238" stroke-linecap="round" stroke-linejoin="round"/>
<path d="M339.6 306.89C339.6 306.89 327.07 268.63 358.6 265.95C390.13 263.27 393.82 292.63 396.71 307.35C398.97 318.86 420.49 339.91 403.83 355.62C386.45 372.03 344.11 366.55 341.67 343.23C339.23 319.91 341.44 315.13 339.6 306.89Z" fill="#263238" stroke="#263238" stroke-linecap="round" stroke-linejoin="round"/>
<path d="M376.36 313C376.36 313 374.99 330 383.74 344.55C383.74 344.55 371.95 348.4 359.65 344.74C360.16 340.237 359.91 335.68 358.91 331.26L358.49 329.41L367.43 321.68L376.36 313Z" fill="white"/>
<path d="M354.72 325.77C356.35 334.9 357.84 336.89 365.58 335.26C371.31 334.05 376.2 325.45 376.48 319.2C376.199 316.362 376.062 313.512 376.07 310.66L367.43 321.66L354.72 325.77Z" fill="#263238"/>
<path d="M376.36 313C376.36 313 374.99 330 383.74 344.55C383.74 344.55 371.95 348.4 359.65 344.74C360.16 340.237 359.91 335.68 358.91 331.26L358.49 329.41L367.43 321.68L376.36 313Z" stroke="#263238" stroke-linecap="round" stroke-linejoin="round"/>
<path d="M288.63 410.07C288.63 410.07 271.18 402.07 270.2 408.69C269.22 415.31 273.49 425.53 289.47 420.5L323 424.92C323 424.92 328.74 413.49 322.61 407.26C322.6 407.26 293.06 411.85 288.63 410.07Z" fill="white" stroke="#263238" stroke-linecap="round" stroke-linejoin="round"/>
<path d="M261.74 417.23C261.74 417.23 258.98 418.12 258.57 419.95C258.16 421.78 257.27 424.37 258.33 424.38C259.39 424.39 260.68 420.74 260.68 420.74L263.37 420.04L261.74 417.23Z" fill="white" stroke="#263238" stroke-linecap="round" stroke-linejoin="round"/>
<path d="M280.018 399.861L261.877 401.761L264.584 427.6L282.725 425.699L280.018 399.861Z" fill="white" stroke="#263238" stroke-linecap="round" stroke-linejoin="round"/>
<path d="M261.871 401.76L259.166 402.043L261.872 427.882L264.577 427.598L261.871 401.76Z" fill="#7E57C2" stroke="#263238" stroke-linecap="round" stroke-linejoin="round"/>
<path d="M275.14 396.12C274.103 396.241 273.154 396.763 272.497 397.573C271.839 398.384 271.524 399.42 271.62 400.46C271.635 400.551 271.655 400.641 271.68 400.73L272.59 400.64L273.59 400.54C273.568 400.448 273.551 400.354 273.54 400.26C273.501 399.902 273.558 399.54 273.703 399.21C273.849 398.881 274.079 398.595 274.37 398.383C274.661 398.171 275.003 398.039 275.361 398.001C275.719 397.963 276.081 398.02 276.411 398.166C276.74 398.312 277.025 398.543 277.237 398.834C277.448 399.126 277.58 399.468 277.617 399.826C277.654 400.185 277.597 400.546 277.45 400.875C277.303 401.204 277.072 401.489 276.78 401.7C276.897 402.022 277.102 402.304 277.373 402.513C277.644 402.722 277.969 402.849 278.31 402.88C278.902 402.311 279.302 401.572 279.453 400.765C279.604 399.958 279.5 399.123 279.154 398.379C278.808 397.634 278.238 397.016 277.524 396.611C276.81 396.206 275.987 396.034 275.17 396.12H275.14Z" fill="white" stroke="#263238" stroke-linecap="round" stroke-linejoin="round"/>
<path d="M265.29 407.12L271.54 406.46" stroke="#263238" stroke-linecap="round" stroke-linejoin="round"/>
<path d="M265.59 409.96L277.72 408.69" stroke="#263238" stroke-linecap="round" stroke-linejoin="round"/>
<path d="M265.89 412.81L271.96 412.18" stroke="#263238" stroke-linecap="round" stroke-linejoin="round"/>
<path d="M266.19 415.66L276.32 414.6" stroke="#263238" stroke-linecap="round" stroke-linejoin="round"/>
<path d="M266.49 418.51L272.55 417.87" stroke="#263238" stroke-linecap="round" stroke-linejoin="round"/>
<path d="M266.79 421.35L280.09 419.96" stroke="#263238" stroke-linecap="round" stroke-linejoin="round"/>
<path d="M267.08 424.2L273.33 423.55" stroke="#263238" stroke-linecap="round" stroke-linejoin="round"/>
<path d="M271.78 396.47C270.745 396.593 269.799 397.116 269.143 397.927C268.487 398.737 268.174 399.772 268.27 400.81C268.282 400.904 268.299 400.998 268.32 401.09L269.24 400.99L270.24 400.89C270.21 400.799 270.189 400.705 270.18 400.61C270.16 400.087 270.34 399.576 270.683 399.181C271.027 398.785 271.507 398.536 272.028 398.482C272.549 398.429 273.07 398.576 273.487 398.893C273.903 399.21 274.183 399.674 274.27 400.19C274.309 400.548 274.25 400.909 274.101 401.237C273.951 401.564 273.716 401.845 273.42 402.05C273.537 402.372 273.742 402.654 274.013 402.863C274.284 403.072 274.609 403.199 274.95 403.23C275.542 402.661 275.942 401.922 276.093 401.115C276.244 400.308 276.14 399.473 275.794 398.729C275.448 397.984 274.878 397.366 274.164 396.961C273.45 396.556 272.627 396.384 271.81 396.47H271.78Z" fill="white" stroke="#263238" stroke-linecap="round" stroke-linejoin="round"/>
<path d="M268.42 396.82C267.385 396.943 266.439 397.466 265.783 398.277C265.127 399.087 264.814 400.122 264.91 401.16C264.91 401.26 264.91 401.34 264.91 401.44L265.83 401.34L266.83 401.24C266.805 401.151 266.785 401.061 266.77 400.97C266.729 400.61 266.784 400.245 266.93 399.912C267.075 399.58 267.305 399.292 267.598 399.077C267.89 398.863 268.234 398.729 268.595 398.69C268.955 398.651 269.32 398.707 269.651 398.854C269.983 399.001 270.27 399.233 270.483 399.527C270.697 399.82 270.829 400.165 270.866 400.525C270.903 400.886 270.845 401.25 270.696 401.581C270.548 401.912 270.314 402.198 270.02 402.41C270.133 402.731 270.337 403.013 270.607 403.22C270.876 403.428 271.201 403.553 271.54 403.58C271.977 403.17 272.313 402.664 272.522 402.101C272.73 401.539 272.805 400.936 272.74 400.34C272.619 399.307 272.1 398.361 271.294 397.704C270.487 397.047 269.456 396.73 268.42 396.82Z" fill="white" stroke="#263238" stroke-linecap="round" stroke-linejoin="round"/>
<path d="M265.07 397.17C264.033 397.291 263.084 397.812 262.426 398.623C261.769 399.434 261.454 400.47 261.55 401.51C261.564 401.605 261.584 401.698 261.61 401.79L262.52 401.69L263.52 401.59C263.498 401.501 263.482 401.411 263.47 401.32C263.431 400.962 263.487 400.6 263.633 400.27C263.779 399.941 264.009 399.655 264.3 399.443C264.591 399.231 264.933 399.099 265.291 399.061C265.649 399.023 266.011 399.08 266.341 399.226C266.67 399.372 266.955 399.603 267.167 399.894C267.378 400.186 267.51 400.528 267.547 400.886C267.584 401.245 267.527 401.606 267.38 401.935C267.233 402.264 267.002 402.549 266.71 402.76C266.827 403.081 267.033 403.361 267.304 403.568C267.575 403.776 267.9 403.901 268.24 403.93C268.674 403.517 269.007 403.01 269.215 402.449C269.423 401.887 269.5 401.286 269.44 400.69C269.319 399.647 268.793 398.694 267.976 398.035C267.158 397.377 266.115 397.066 265.07 397.17Z" fill="white" stroke="#263238" stroke-linecap="round" stroke-linejoin="round"/>
<path d="M260.08 401.67C260.038 401.309 260.092 400.943 260.237 400.61C260.382 400.277 260.612 399.987 260.905 399.772C261.198 399.557 261.543 399.422 261.904 399.383C262.265 399.344 262.631 399.401 262.963 399.549C263.295 399.696 263.582 399.929 263.795 400.224C264.008 400.518 264.14 400.864 264.176 401.226C264.212 401.587 264.152 401.952 264.002 402.283C263.851 402.614 263.616 402.899 263.32 403.11C263.437 403.431 263.643 403.711 263.914 403.918C264.185 404.126 264.51 404.251 264.85 404.28C265.418 403.736 265.81 403.034 265.976 402.266C266.142 401.497 266.074 400.696 265.781 399.966C265.488 399.236 264.983 398.611 264.332 398.17C263.68 397.73 262.912 397.494 262.125 397.494C261.338 397.494 260.57 397.73 259.918 398.17C259.267 398.611 258.762 399.236 258.469 399.966C258.176 400.696 258.108 401.497 258.274 402.266C258.44 403.034 258.832 403.736 259.4 404.28L259.17 402.03L260.17 401.93C260.131 401.847 260.101 401.76 260.08 401.67Z" fill="white" stroke="#263238" stroke-linecap="round" stroke-linejoin="round"/>
<path d="M257.07 409C257.24 409.377 257.437 409.741 257.66 410.09C257.467 410.779 257.432 411.503 257.556 412.207C257.681 412.912 257.962 413.579 258.38 414.16C258.38 414.16 258.46 417.01 259.47 417.46C260.48 417.91 262.09 418.46 262.06 417.66C262.03 416.86 261.56 414.47 259.74 413.94C259.74 413.94 261.83 414.35 261.6 413.19C261.37 412.03 260.97 410.35 259.69 409.87L259 409.57C259 409.57 260.66 409.87 260.52 408.62C260.38 407.37 260.24 405.9 259.29 405.55C259.07 405.47 258.82 405.4 258.56 405.33C257.16 405 256.26 407.2 257.07 409Z" fill="white" stroke="#263238" stroke-linecap="round" stroke-linejoin="round"/>
<path d="M286.67 409.85C286.67 409.85 284.72 405.53 281.53 403.28C278.34 401.03 277.14 396.65 275.84 397.71C274.54 398.77 275.72 403.42 277.74 405.01C279.76 406.6 277.5 410.15 282.47 414.53" fill="white"/>
<path d="M286.67 409.85C286.67 409.85 284.72 405.53 281.53 403.28C278.34 401.03 277.14 396.65 275.84 397.71C274.54 398.77 275.72 403.42 277.74 405.01C279.76 406.6 277.5 410.15 282.47 414.53" stroke="#263238" stroke-linecap="round" stroke-linejoin="round"/>
<path d="M404.14 422.46C403.7 425.18 403.23 428.003 402.73 430.93H334.15C334.04 430.01 334.69 428.16 335.31 424.93C327.67 427.52 314.31 423.5 314.31 423.5C315.97 419.13 314.82 408.03 314.82 408.03L322.6 406.38C322.6 406.38 325.83 372.56 328.29 362.87C330.9 352.59 345.18 341.37 393.21 344.68C393.21 344.68 415.37 344.26 418.81 358.95C422.05 372.66 405.06 421.83 404.14 422.46Z" fill="#7E57C2"/>
<path opacity="0.2" d="M335.31 424.94C330 426.74 321.95 425.35 317.53 424.33C318.68 423.45 319.4 421.65 319.67 419.33C323.27 418.77 326.87 413.05 329.24 387.05C329.8 380.95 331 377.12 332.54 374.54C330.987 380.391 330.925 386.539 332.36 392.42C333.22 395.91 335.92 404.31 336.16 407.79C336.64 413.519 336.354 419.287 335.31 424.94Z" fill="black"/>
<path opacity="0.2" d="M404.13 422.47C403.703 425.19 403.237 428.01 402.73 430.93H334.15C335.38 427.17 338.4 409.27 334.15 398.39C333.98 397.95 348.88 391.69 358.86 394.25C401.16 405.1 386.59 370.14 398.67 363.78L388.25 404.65L382.56 406.46C394.88 407.22 391.32 425.69 391.32 425.69C395.844 426.291 400.428 425.139 404.13 422.47Z" fill="black"/>
<path d="M404.14 422.46C403.7 425.18 403.23 428.003 402.73 430.93H334.15C334.04 430.01 334.69 428.16 335.31 424.93C327.67 427.52 314.31 423.5 314.31 423.5C315.97 419.13 314.82 408.03 314.82 408.03L322.6 406.38C322.6 406.38 325.83 372.56 328.29 362.87C330.9 352.59 345.18 341.37 393.21 344.68C393.21 344.68 415.37 344.26 418.81 358.95C422.05 372.66 405.06 421.83 404.14 422.46Z" stroke="#263238" stroke-linecap="round" stroke-linejoin="round"/>
<path d="M316.1 406.13C316.1 406.13 318.7 407.52 319.55 413.63C320.4 419.74 319.09 425 315.7 424.92C312.31 424.84 311.7 423.51 312.4 422.25C313.1 420.99 314.58 419.3 313.45 414.07C312.03 407.52 309.11 408.12 309.11 408.12C309.11 408.12 313 404.39 316.1 406.13Z" fill="#7E57C2" stroke="#263238" stroke-linecap="round" stroke-linejoin="round"/>
<path opacity="0.2" d="M319.67 419.37C319.4 421.65 318.67 423.45 317.53 424.37C317.009 424.777 316.361 424.986 315.7 424.96C312.3 424.88 311.7 423.55 312.4 422.29C313.1 421.03 314.58 419.34 313.45 414.11C312.03 407.56 309.11 408.16 309.11 408.16C309.11 408.16 313.01 404.43 316.11 406.16C316.11 406.16 318.71 407.55 319.56 413.66C319.831 415.552 319.868 417.469 319.67 419.37Z" fill="black"/>
<path d="M381.43 332.46C381.43 332.46 364.19 337.69 356.35 334.9L354.72 345.37C354.72 345.37 362.35 352.01 386.79 343.84L381.43 332.46Z" fill="#7E57C2" stroke="#263238" stroke-linecap="round" stroke-linejoin="round"/>
<path d="M320.17 403.08C322.22 409.75 324.05 415.08 322.24 415.67C320.43 416.26 318.94 410.76 316.89 404.08C314.84 397.4 313.01 392.08 314.82 391.5C316.63 390.92 318.12 396.4 320.17 403.08Z" fill="#7E57C2" stroke="#263238" stroke-linecap="round" stroke-linejoin="round"/>
<path d="M316.63 403.24L319.91 402.24C319.43 400.67 318.98 399.17 318.55 397.83L315.28 398.83C315.68 400.18 316.14 401.66 316.63 403.24Z" fill="#263238"/>
<path d="M316.33 394.66C316.33 394.66 317.86 391.59 319.27 393.76C320.68 395.93 320.97 402.52 321.97 402.53" stroke="#263238" stroke-linecap="round" stroke-linejoin="round"/>
<path d="M336.67 362C335.42 365.83 333.67 370 332.54 374.59C330.987 380.441 330.925 386.589 332.36 392.47C333.22 395.96 335.92 404.36 336.16 407.84C336.637 413.556 336.351 419.31 335.31 424.95C334.69 428.17 334.04 430.02 334.15 430.95" stroke="#263238" stroke-linecap="round" stroke-linejoin="round"/>
<path d="M379.12 407.6C379.12 407.6 351.22 411.41 341.81 411.6C340.37 411.6 336.05 411.1 336.05 411.1L329.36 406.63C329.36 406.63 324.21 405.87 321.68 406.44L318.8 410.21C318.8 410.21 315.21 411.37 317.26 414.09C317.047 414.728 317.023 415.414 317.191 416.066C317.36 416.717 317.714 417.306 318.21 417.76C318.21 417.76 318.37 420.13 319.95 421.08C319.95 421.08 320.26 423.29 322 423.92C323.74 424.55 334.63 422.81 337.95 421.87C341.27 420.93 373.47 425.97 386.1 425.66C386.1 425.68 396.92 413 379.12 407.6Z" fill="white" stroke="#263238" stroke-linecap="round" stroke-linejoin="round"/>
<path d="M379.55 302C379.55 302 372.19 304.87 367.83 296.93C365.94 293.49 362.12 286.32 362.12 286.32C361.03 289.13 362.37 293.41 362.37 293.41C359.87 292.32 355.05 292.06 355.05 292.06C353.34 289.2 352.84 282.7 352.84 282.7C350.47 286.7 351.15 292.34 351.15 292.34C347.282 292.712 343.62 294.262 340.66 296.78C341.29 299.33 341.51 303.31 341.3 311.58C341.03 322.37 346.22 325.33 351.3 329.37C356.38 333.41 370.21 335.49 374.99 314.37C374.99 314.37 384.99 310.64 380.11 302.81L379.55 302Z" fill="white" stroke="#263238" stroke-linecap="round" stroke-linejoin="round"/>
<path d="M371.35 289C372.839 292.215 375.01 295.068 377.713 297.359C380.416 299.651 383.585 301.327 387 302.27" stroke="#BFBFBF" stroke-miterlimit="10"/>
<path d="M368.72 281C368.954 282.314 369.288 283.607 369.72 284.87" stroke="#BFBFBF" stroke-miterlimit="10"/>
<path d="M373.72 281.49C373.72 281.49 379.4 292.33 388.28 292.59" stroke="#BFBFBF" stroke-miterlimit="10"/>
<path d="M391.13 309.06C391.13 309.06 405.58 332.46 405.58 346.06" stroke="#BFBFBF" stroke-miterlimit="10"/>
<path d="M387.31 315.3C387.31 315.3 390.88 328.35 396.63 334.9" stroke="#BFBFBF" stroke-miterlimit="10"/>
<path d="M341.9 281.37C341.467 283.295 341.183 285.251 341.05 287.22" stroke="#BFBFBF" stroke-miterlimit="10"/>
<path d="M353.73 269.11C353.73 269.11 347 270.37 342.61 278.3" stroke="#BFBFBF" stroke-miterlimit="10"/>
<path d="M345.21 329.7C345.21 329.7 344.99 340.2 350.35 346.1" stroke="#BFBFBF" stroke-miterlimit="10"/>
<path d="M354.72 297.57C362.01 296.14 365.2 299.85 365.2 299.85" stroke="#263238" stroke-linecap="round" stroke-linejoin="round"/>
<path d="M342.58 300.64C343.384 299.828 344.347 299.191 345.409 298.768C346.47 298.344 347.608 298.144 348.75 298.18" stroke="#263238" stroke-linecap="round" stroke-linejoin="round"/>
<path d="M359.47 322C361.72 320.72 362.97 317.38 362.97 317.38L362.5 317.64C359.567 319.208 356.37 320.225 353.07 320.64C353.841 321.536 354.884 322.154 356.041 322.4C357.197 322.645 358.401 322.505 359.47 322V322Z" stroke="#263238" stroke-linecap="round" stroke-linejoin="round"/>
<path d="M350.55 315.06C349.6 314.94 346.89 313.66 346.66 311.82C346.59 311.27 346.99 310.77 347.58 310.33C348.748 309.51 349.687 308.405 350.308 307.121C350.929 305.836 351.212 304.414 351.13 302.99C351.13 302.79 351.13 302.67 351.13 302.67" stroke="#263238" stroke-linecap="round" stroke-linejoin="round"/>
<path d="M359.87 300.5C360.56 300.41 361.27 301.56 361.45 303.05C361.63 304.54 361.23 305.81 360.53 305.9C359.83 305.99 359.14 304.84 358.95 303.35C358.76 301.86 359.18 300.58 359.87 300.5Z" fill="#263238"/>
<path d="M347.85 304.81C348.03 306.27 347.63 307.52 346.95 307.6C346.27 307.68 345.58 306.6 345.4 305.11C345.22 303.62 345.62 302.39 346.3 302.31C346.98 302.23 347.67 303.34 347.85 304.81Z" fill="#263238"/>
<path d="M370.23 301.75C370.23 301.75 369.3 299.11 370.36 297.75" stroke="#263238" stroke-linecap="round" stroke-linejoin="round"/>
<path d="M404.13 422.47C400.426 425.143 395.838 426.296 391.31 425.69C391.31 425.69 394.87 407.22 382.55 406.46L388.24 404.65L398.66 363.78" stroke="#263238" stroke-linecap="round" stroke-linejoin="round"/>
<path d="M391.31 404.65C391.31 404.65 397.91 406.39 399.76 412.07" stroke="#263238" stroke-linecap="round" stroke-linejoin="round"/>
<path d="M364.38 338.88C370.66 338.837 376.861 337.474 382.58 334.88" stroke="#263238" stroke-linecap="round" stroke-linejoin="round"/>
<path d="M355.88 337.9C357.291 338.268 358.729 338.522 360.18 338.66" stroke="#263238" stroke-linecap="round" stroke-linejoin="round"/>
<path d="M384 349.62C385.78 348.993 387.647 348.257 389.6 347.41" stroke="#263238" stroke-linecap="round" stroke-linejoin="round"/>
<path d="M353.11 349.77C353.11 349.77 359.82 356.14 377.57 351.59" stroke="#263238" stroke-linecap="round" stroke-linejoin="round"/>
<path d="M358.91 381.43C358.91 381.43 359.91 396.8 371.35 402.53" stroke="#263238" stroke-linecap="round" stroke-linejoin="round"/>
<path d="M378.84 407.84C378.84 407.84 381.08 402.9 387.78 405.34C387.78 405.34 394.11 407.52 396.01 414.03C397.91 420.54 395.53 426.35 390.91 426.59C386.29 426.83 385.45 426.47 386.23 425.05C387.05 423.5 387.508 421.784 387.57 420.031C387.633 418.279 387.298 416.535 386.59 414.93C383.72 408.06 378.84 407.84 378.84 407.84Z" fill="#7E57C2"/>
<g opacity="0.2">
<path d="M378.84 407.84C378.84 407.84 381.08 402.9 387.78 405.34C387.78 405.34 394.11 407.52 396.01 414.03C397.91 420.54 395.53 426.35 390.91 426.59C386.29 426.83 385.45 426.47 386.23 425.05C387.05 423.5 387.508 421.784 387.57 420.031C387.633 418.279 387.298 416.535 386.59 414.93C383.72 408.06 378.84 407.84 378.84 407.84Z" fill="black"/>
</g>
<path d="M378.84 407.84C378.84 407.84 381.08 402.9 387.78 405.34C387.78 405.34 394.11 407.52 396.01 414.03C397.91 420.54 395.53 426.35 390.91 426.59C386.29 426.83 385.45 426.47 386.23 425.05C387.05 423.5 387.508 421.784 387.57 420.031C387.633 418.279 387.298 416.535 386.59 414.93C383.72 408.06 378.84 407.84 378.84 407.84Z" stroke="#263238" stroke-linecap="round" stroke-linejoin="round"/>
<path d="M72.44 387.51C72.44 387.51 69 358.1 38.59 370C38.59 370 64.47 369.81 68.85 392L72.85 391.57L72.44 387.51Z" fill="#7E57C2"/>
<path opacity="0.1" d="M72.44 387.51C72.44 387.51 69 358.1 38.59 370C38.59 370 64.47 369.81 68.85 392L72.85 391.57L72.44 387.51Z" fill="black"/>
<path d="M72.86 387C72.86 387 70.23 355.64 64.5 331.27C64.5 331.27 82 349.78 78 384.63L72.86 387Z" fill="#7E57C2"/>
<path opacity="0.1" d="M72.86 387C72.86 387 70.23 355.64 64.5 331.27C64.5 331.27 82 349.78 78 384.63L72.86 387Z" fill="black"/>
<path d="M71.16 407.78C71.16 407.78 66.16 364.58 49.33 349.78C49.33 349.78 79.33 357.25 74.91 403.13L71.16 407.78Z" fill="#7E57C2"/>
<path d="M76.44 406C76.44 406 83.79 363.13 101.35 349.22C101.35 349.22 70.97 355.06 72.95 401.12L76.44 406Z" fill="#7E57C2"/>
<path d="M91.85 391.94H56.35V398.11H57.53V419.88C57.53 422.802 58.6873 425.605 60.7488 427.676C62.8103 429.747 65.6081 430.917 68.53 430.93H79.53C82.4616 430.93 85.2732 429.766 87.3471 427.694C89.421 425.622 90.5874 422.812 90.59 419.88V398.11H91.77L91.85 391.94Z" fill="white" stroke="#263238" stroke-miterlimit="10"/>
<path d="M80.85 397.82H85.57H80.85Z" fill="white"/>
<path d="M80.85 397.82H85.57" stroke="#263238" stroke-miterlimit="10"/>
<path d="M62.34 397.82H76H62.34Z" fill="white"/>
<path d="M62.34 397.82H76" stroke="#263238" stroke-miterlimit="10"/>
<path d="M212 403.77L202.9 329.67C202.727 328.511 202.153 327.45 201.278 326.671C200.402 325.893 199.281 325.446 198.11 325.41H187.69L199.75 408H208.28C208.816 408.01 209.348 407.903 209.839 407.687C210.329 407.471 210.767 407.15 211.121 406.747C211.475 406.345 211.737 405.87 211.889 405.356C212.041 404.841 212.079 404.3 212 403.77Z" fill="#7E57C2" stroke="#263238" stroke-linecap="round" stroke-linejoin="round"/>
<path d="M206 408H101.16C99.9908 407.961 98.8721 407.514 97.9987 406.735C97.1254 405.957 96.5526 404.897 96.3801 403.74L87.2801 329.64C87.1997 329.109 87.2364 328.568 87.3876 328.053C87.5388 327.538 87.8008 327.062 88.1552 326.659C88.5096 326.256 88.9479 325.935 89.4394 325.719C89.9308 325.504 90.4635 325.398 91.0001 325.41H195.88C197.049 325.449 198.168 325.896 199.041 326.675C199.915 327.453 200.488 328.513 200.66 329.67L209.76 403.77C209.839 404.304 209.8 404.848 209.646 405.366C209.492 405.883 209.226 406.36 208.868 406.763C208.509 407.166 208.067 407.486 207.571 407.7C207.076 407.914 206.539 408.016 206 408Z" fill="#263238"/>
<path opacity="0.1" d="M206 408H101.16C99.9908 407.961 98.8721 407.514 97.9987 406.735C97.1254 405.957 96.5526 404.897 96.3801 403.74L87.2801 329.64C87.1997 329.109 87.2364 328.568 87.3876 328.053C87.5388 327.538 87.8008 327.062 88.1552 326.659C88.5096 326.256 88.9479 325.935 89.4394 325.719C89.9308 325.504 90.4635 325.398 91.0001 325.41H195.88C197.049 325.449 198.168 325.896 199.041 326.675C199.915 327.453 200.488 328.513 200.66 329.67L209.76 403.77C209.839 404.304 209.8 404.848 209.646 405.366C209.492 405.883 209.226 406.36 208.868 406.763C208.509 407.166 208.067 407.486 207.571 407.7C207.076 407.914 206.539 408.016 206 408Z" fill="white"/>
<path d="M206 408H101.16C99.9908 407.961 98.8721 407.514 97.9987 406.735C97.1254 405.957 96.5526 404.897 96.3801 403.74L87.2801 329.64C87.1997 329.109 87.2364 328.568 87.3876 328.053C87.5388 327.538 87.8008 327.062 88.1552 326.659C88.5096 326.256 88.9479 325.935 89.4394 325.719C89.9308 325.504 90.4635 325.398 91.0001 325.41H195.88C197.049 325.449 198.168 325.896 199.041 326.675C199.915 327.453 200.488 328.513 200.66 329.67L209.76 403.77C209.839 404.304 209.8 404.848 209.646 405.366C209.492 405.883 209.226 406.36 208.868 406.763C208.509 407.166 208.067 407.486 207.571 407.7C207.076 407.914 206.539 408.016 206 408V408Z" stroke="#263238" stroke-linecap="round" stroke-linejoin="round"/>
<path d="M157.13 424.87L161.32 377.14C161.338 376.867 161.299 376.593 161.207 376.335C161.114 376.077 160.97 375.841 160.782 375.641C160.595 375.441 160.368 375.282 160.117 375.174C159.865 375.065 159.594 375.009 159.32 375.01H132.89C132.394 375.007 131.915 375.189 131.545 375.52C131.176 375.85 130.942 376.307 130.89 376.8L126.33 428.8C126.312 429.073 126.351 429.347 126.443 429.605C126.536 429.863 126.68 430.099 126.868 430.299C127.055 430.499 127.282 430.658 127.533 430.766C127.785 430.875 128.056 430.931 128.33 430.93H180.77C181.3 430.93 181.809 430.719 182.184 430.344C182.559 429.969 182.77 429.46 182.77 428.93C182.77 428.4 182.559 427.891 182.184 427.516C181.809 427.141 181.3 426.93 180.77 426.93H159.08C158.817 426.924 158.557 426.865 158.316 426.758C158.075 426.651 157.858 426.497 157.677 426.306C157.495 426.114 157.354 425.889 157.26 425.642C157.166 425.396 157.122 425.133 157.13 424.87Z" fill="#263238" stroke="#263238" stroke-linecap="round" stroke-linejoin="round"/>
<path d="M182.73 429C182.73 428.47 182.519 427.961 182.144 427.586C181.769 427.211 181.26 427 180.73 427H159.08C158.805 427.001 158.533 426.945 158.281 426.836C158.029 426.726 157.802 426.566 157.614 426.366C157.426 426.165 157.282 425.927 157.19 425.668C157.098 425.409 157.061 425.134 157.08 424.86L161.27 377.13C161.356 376.845 161.378 376.545 161.333 376.251C161.288 375.957 161.179 375.676 161.012 375.43C160.845 375.183 160.626 374.977 160.369 374.827C160.113 374.676 159.826 374.584 159.529 374.558C159.233 374.533 158.935 374.573 158.656 374.677C158.377 374.781 158.125 374.946 157.918 375.16C157.712 375.374 157.555 375.631 157.46 375.913C157.365 376.195 157.334 376.495 157.37 376.79L152.81 428.79C152.792 429.059 152.829 429.329 152.919 429.584C153.008 429.838 153.148 430.072 153.331 430.271C153.513 430.47 153.733 430.63 153.979 430.742C154.225 430.853 154.49 430.914 154.76 430.92H180.76C181.272 430.913 181.761 430.71 182.128 430.352C182.494 429.995 182.71 429.511 182.73 429Z" fill="#7E57C2" stroke="#263238" stroke-linecap="round" stroke-linejoin="round"/>
<path d="M62.5 430.93H437.5" stroke="#263238" stroke-linecap="round" stroke-linejoin="round"/>
<path d="M412.41 249.33H392.7C391.472 249.33 390.294 249.818 389.426 250.686C388.558 251.554 388.07 252.732 388.07 253.96V263.56C388.07 264.788 388.558 265.966 389.426 266.834C390.294 267.702 391.472 268.19 392.7 268.19H397.85L399.36 277.04L407.26 268.19H412.41C413.019 268.191 413.622 268.073 414.185 267.84C414.748 267.608 415.259 267.267 415.69 266.837C416.121 266.407 416.463 265.897 416.697 265.334C416.93 264.772 417.05 264.169 417.05 263.56V254C417.054 253.388 416.937 252.782 416.705 252.215C416.474 251.649 416.133 251.134 415.702 250.7C415.27 250.266 414.757 249.921 414.193 249.686C413.628 249.451 413.022 249.33 412.41 249.33Z" fill="white" stroke="#263238" stroke-linecap="round" stroke-linejoin="round"/>
<path d="M382.19 221H362.48C361.871 220.999 361.268 221.117 360.705 221.35C360.142 221.582 359.631 221.922 359.2 222.353C358.769 222.783 358.427 223.293 358.193 223.856C357.96 224.418 357.84 225.021 357.84 225.63V235.22C357.84 236.451 358.329 237.631 359.199 238.501C360.069 239.371 361.249 239.86 362.48 239.86H367.63L371.54 248.71L377.04 239.86H382.19C383.421 239.86 384.601 239.371 385.471 238.501C386.341 237.631 386.83 236.451 386.83 235.22V225.63C386.83 225.021 386.71 224.418 386.477 223.856C386.243 223.293 385.901 222.783 385.47 222.353C385.039 221.922 384.528 221.582 383.965 221.35C383.402 221.117 382.799 220.999 382.19 221Z" fill="white" stroke="#263238" stroke-linecap="round" stroke-linejoin="round"/>
<path d="M343.83 230.91H325.21C324.048 230.91 322.934 231.371 322.113 232.193C321.291 233.014 320.83 234.128 320.83 235.29V244.35C320.83 245.512 321.291 246.626 322.113 247.447C322.934 248.269 324.048 248.73 325.21 248.73H330.08L335.16 257.08L338.96 248.73H343.83C344.992 248.73 346.106 248.269 346.927 247.447C347.749 246.626 348.21 245.512 348.21 244.35V235.29C348.21 234.128 347.749 233.014 346.927 232.193C346.106 231.371 344.992 230.91 343.83 230.91Z" fill="white" stroke="#263238" stroke-linecap="round" stroke-linejoin="round"/>
<path d="M332 237.68V238.77C332 240.11 331.36 240.84 330 240.84H329.37V244H328.05V235.6H330C331.33 235.6 332 236.33 332 237.68ZM329.41 236.8V239.64H330C330.42 239.64 330.64 239.45 330.64 238.85V237.59C330.64 236.99 330.42 236.8 330 236.8H329.41Z" fill="#263238"/>
<path d="M334 244H332.68V235.6H334V239.2H335.5V235.6H336.84V244H335.5V240.4H334V244Z" fill="#263238"/>
<path d="M341.68 237.68V238.77C341.68 240.11 341.04 240.84 339.68 240.84H339.06V244H337.74V235.6H339.68C341 235.6 341.68 236.33 341.68 237.68ZM339.09 236.8V239.64H339.71C340.13 239.64 340.36 239.45 340.36 238.85V237.59C340.36 236.99 340.13 236.8 339.71 236.8H339.09Z" fill="#263238"/>
<path d="M369.51 231.68V232.8C369.51 234.14 368.84 234.91 367.51 234.91C366.18 234.91 365.51 234.14 365.51 232.8V228.43C365.51 227.09 366.18 226.32 367.51 226.32C368.84 226.32 369.51 227.09 369.51 228.43V229.25H368.26V228.35C368.26 227.75 368 227.52 367.58 227.52C367.16 227.52 366.9 227.75 366.9 228.35V232.88C366.9 233.48 367.16 233.7 367.58 233.7C368 233.7 368.26 233.48 368.26 232.88V231.68H369.51Z" fill="#263238"/>
<path d="M372.68 230.15H374.29V231.08H372.68V232.73H371.74V231.08H370.14V230.15H371.74V228.53H372.68V230.15Z" fill="#263238"/>
<path d="M377.43 230.15H379V231.08H377.39V232.73H376.46V231.08H374.85V230.15H376.46V228.53H377.39L377.43 230.15Z" fill="#263238"/>
<path d="M393.31 259.68V258.4L398.66 256.4V257.7L395 259L398.67 260.31V261.61L393.31 259.68Z" fill="#263238"/>
<path d="M403.92 253.3H405.47L401 264.78H399.44L403.92 253.3Z" fill="#263238"/>
<path d="M406.21 261.65V260.35L409.88 259.04L406.21 257.73V256.43L411.56 258.43V259.71L406.21 261.65Z" fill="#263238"/>
</svg>
